<?xml version="1.0" encoding="utf-8"?>
<!-- Generator: Adobe Illustrator 19.0.0, SVG Export Plug-In . SVG Version: 6.00 Build 0)  -->
<svg version="1.1" id="Layer_1" xmlns="http://www.w3.org/2000/svg" xmlns:xlink="http://www.w3.org/1999/xlink" x="0px" y="0px"
	 viewBox="0 0 40 40" style="enable-background:new 0 0 40 40;" xml:space="preserve">
<style type="text/css">
	.st0{fill:#E8B91E;}
	.st1{fill:#FFFFFF;}
</style>
<circle id="XMLID_44_" class="st0" cx="20" cy="20" r="20"/>
<path id="XMLID_112_" class="st1" d="M20,8c-2.5,0-4.6,2-4.6,4.4v8.2c0,2.4,2,4.4,4.6,4.4s4.5-2,4.5-4.4v-8.2C24.5,10,22.5,8,20,8z
	 M27.1,18.1c-0.4,0-0.6,0.3-0.6,0.6v1.9c0,3.5-2.9,6.3-6.5,6.3s-6.5-2.8-6.5-6.3v-1.9c0-0.3-0.3-0.6-0.7-0.6s-0.6,0.3-0.6,0.6v1.9
	c0,4,3.2,7.2,7.2,7.6v2.6h-3.9c-0.4,0-0.7,0.3-0.7,0.6c0,0.3,0.3,0.6,0.7,0.6h9.1c0.4,0,0.7-0.3,0.7-0.6c0-0.3-0.3-0.6-0.7-0.6h-3.9
	v-2.6c4-0.3,7.1-3.6,7.1-7.6v-1.9C27.8,18.4,27.5,18.1,27.1,18.1z"/>
</svg>
