<?xml version="1.0" encoding="utf-8"?>
<!-- Generator: Adobe Illustrator 19.0.0, SVG Export Plug-In . SVG Version: 6.00 Build 0)  -->
<svg version="1.1" id="Layer_1" xmlns="http://www.w3.org/2000/svg" xmlns:xlink="http://www.w3.org/1999/xlink" x="0px" y="0px"
	 viewBox="-375 287 40 40" style="enable-background:new -375 287 40 40;" xml:space="preserve">
<style type="text/css">
	.st0{fill:#E8B91E;}
	.st1{fill:#FFFFFF;}
</style>
<circle id="XMLID_44_" class="st0" cx="-355" cy="307" r="20"/>
<g>
	<path class="st1" d="M-355.4,296.8c-0.4-0.2-0.9-0.1-1.3,0.2l-5.6,5.2c-0.1,0.1-0.2,0.1-0.4,0.1h-1.9c-1.3,0-2.3,1.1-2.3,2.3v4.6
		c0,1.3,1,2.3,2.3,2.3h1.9c0.1,0,0.3,0,0.4,0.1l5.6,5.2c0.2,0.2,0.5,0.3,0.8,0.3c0.2,0,0.3,0,0.5-0.1c0.4-0.2,0.7-0.6,0.7-1.1v-18.2
		C-354.7,297.4-355,297-355.4,296.8z"/>
</g>
<g>
	<path class="st1" d="M-344,310.7c-0.2,0-0.4-0.1-0.5-0.2l-5.9-5.9c-0.3-0.3-0.3-0.8,0-1.1s0.8-0.3,1.1,0l5.9,5.9
		c0.3,0.3,0.3,0.8,0,1.1C-343.6,310.6-343.8,310.7-344,310.7z"/>
</g>
<g>
	<path class="st1" d="M-349.9,310.7c-0.2,0-0.4-0.1-0.5-0.2c-0.3-0.3-0.3-0.8,0-1.1l5.9-5.9c0.3-0.3,0.8-0.3,1.1,0s0.3,0.8,0,1.1
		l-5.9,5.9C-349.5,310.6-349.7,310.7-349.9,310.7z"/>
</g>
</svg>
