<?xml version="1.0" encoding="utf-8"?>
<!-- Generator: Adobe Illustrator 19.0.0, SVG Export Plug-In . SVG Version: 6.00 Build 0)  -->
<svg version="1.1" id="Layer_1" xmlns="http://www.w3.org/2000/svg" xmlns:xlink="http://www.w3.org/1999/xlink" x="0px" y="0px"
	 viewBox="-375 287 40 40" style="enable-background:new -375 287 40 40;" xml:space="preserve">
<style type="text/css">
	.st0{fill:#E8B91E;}
	.st1{fill:#FFFFFF;}
</style>
<circle id="XMLID_44_" class="st0" cx="-355" cy="307" r="20"/>
<g>
	<path class="st1" d="M-355.4,296.8c-0.4-0.2-0.9-0.1-1.3,0.2l-5.6,5.2c-0.1,0.1-0.2,0.1-0.4,0.1h-1.9c-1.3,0-2.3,1.1-2.3,2.3v4.6
		c0,1.3,1,2.3,2.3,2.3h1.9c0.1,0,0.3,0,0.4,0.1l5.6,5.2c0.2,0.2,0.5,0.3,0.8,0.3c0.2,0,0.3,0,0.5-0.1c0.4-0.2,0.7-0.6,0.7-1.1v-18.2
		C-354.7,297.4-355,297-355.4,296.8z"/>
	<path class="st1" d="M-351.6,302c-0.2-0.2-0.6-0.3-0.8-0.1c-0.2,0.2-0.3,0.6-0.1,0.8c2.1,2.4,2.1,6.1,0,8.5
		c-0.2,0.2-0.2,0.6,0.1,0.8c0.1,0.1,0.2,0.1,0.4,0.1c0.2,0,0.3-0.1,0.4-0.2C-349.1,309.2-349.1,304.8-351.6,302z"/>
	<path class="st1" d="M-348.3,299.1c-0.2-0.2-0.6-0.2-0.8,0c-0.2,0.2-0.2,0.6,0,0.8c3.7,4,3.7,10.3,0,14.3c-0.2,0.2-0.2,0.6,0,0.8
		c0.1,0.1,0.3,0.2,0.4,0.2c0.2,0,0.3-0.1,0.4-0.2C-344.2,310.5-344.2,303.5-348.3,299.1z"/>
</g>
</svg>
